<?xml version="1.0" encoding="utf-8"?>
<svg xmlns="http://www.w3.org/2000/svg" width="672.723" height="667.721" viewBox="0 0 672.723 667.721">
  <g id="Group_284" data-name="Group 284" transform="translate(-272.277 -4085.249)">
    <path id="Path_465" data-name="Path 465" d="M598.03,532.565c124.641,17.943,287.64,172.925,239.522-135.152S686.608,188.533,561.967,170.59s-296.54-10.663-222.979,155.053S473.389,514.623,598.03,532.565Z" transform="translate(-74.441 4542.534) rotate(-43)" fill="#004363" opacity="0.1"/>
    <g id="Group_243" data-name="Group 243" transform="translate(413 4156.432)">
      <rect id="Rectangle_544" data-name="Rectangle 544" width="19.867" height="227.994" transform="translate(421.515 219.674)" fill="#7e5332"/>
      <path id="Path_1067" data-name="Path 1067" d="M51.756,25.363s-18.075.309-18.218.618S24.832,51.127,25.3,51.752s9.158,93.764,9.158,93.764l-.264,111.3,6.906-.429S76.677,82.683,78.236,61.377c.482-6.612-1.318-26.472-1.318-26.472Z" transform="translate(158.582 143.257)" fill="#5c121e"/>
      <rect id="Rectangle_545" data-name="Rectangle 545" width="19.867" height="165.627" transform="translate(366.439 249.001)" fill="#7e5332"/>
      <rect id="Rectangle_546" data-name="Rectangle 546" width="19.867" height="165.627" transform="translate(103.982 249.001)" fill="#7e5332"/>
      <path id="Path_1068" data-name="Path 1068" d="M30.839,25.25l41.791,21.4a1040.842,1040.842,0,0,0,2.244,104.918l34.162,82.324L104,240.659s-52.086-65.379-62.193-88.5C30.681,126.673,15.98,70.392,20.581,42.964,21.432,37.918,30.839,25.25,30.839,25.25Z" transform="translate(122.232 142.519)" fill="#861d2e"/>
      <rect id="Rectangle_547" data-name="Rectangle 547" width="19.867" height="195.323" transform="translate(48.906 253.527)" fill="#7e5332"/>
      <path id="Path_1069" data-name="Path 1069" d="M34.622,76.194s9.369,14.528,8.111,18.768-12,.618-12.261-.572-2.372-2.877-3.773-4.5,1.1-13.7,1.1-13.7ZM78.461,54.128c4.18.9,3.464,5.852,6.567,17.977S83.04,96.047,77.09,96.966c-7.441,1.152-5.648-29.251-15.914-37.242-.482-.369,5.031-6.771,5.031-6.771A95.661,95.661,0,0,1,78.461,54.128Z" transform="translate(165.06 323.454)" fill="#273240"/>
      <path id="Path_1070" data-name="Path 1070" d="M29.794,84.838c.934-18.534-4.15-61.365,9.821-73.588,2.5-2.2,10.258-1.853,20.794,0,.731,14.656,9.173,35.668,30.283,38.274,11.982,1.491,21.818-10.258,21.818-10.258s27.971,5.957,28.159,13.458c.075,2.869-3.856,11.229-8.872,18.512-7.652,11.131-19.785,37.671-18.082,58.9.226,2.884-.075,5.31-1.2,6.884-13.473,18.949-92.687,7.945-92.687,7.328C19.83,143.717,29.048,99.908,29.794,84.838Z" transform="translate(122.983 41.14)" fill="#3e6e91"/>
      <path id="Path_1071" data-name="Path 1071" d="M43.48,9.168h.105a1.305,1.305,0,0,0,.316-.211c8.367,27.7,24.5,28.1,25.252,28.6,1.047,6.078,8.7,6.7,8.7,6.7A34.571,34.571,0,0,1,67.79,52.126a20.965,20.965,0,0,1-8.593,2.41,15.63,15.63,0,0,1-3.141,0A30.845,30.845,0,0,1,34.676,42.064a48.576,48.576,0,0,1-9.007-25.772,2.958,2.958,0,0,1-.527-.105A58.324,58.324,0,0,0,43.48,9.168Z" transform="translate(157.671 36.105)" fill="#f7aa8f"/>
      <path id="Path_1072" data-name="Path 1072" d="M27.7,27.973c1.883-4.089,9.745-10.476,18.858-15.3C58.5,6.388,72.544,2.721,78.095,10.056,87.945,22.837,71.181,50.19,66.677,55.01c-4.609,4.715-13.519,1.883-13.519,1.883-.753-.5-16.878-.9-25.252-28.6a1.305,1.305,0,0,1-.316.211A.95.95,0,0,1,27.7,27.973Z" transform="translate(173.666 16.773)" fill="#f8b29a"/>
      <path id="Path_1073" data-name="Path 1073" d="M1,36.9,2.762,48.8l477.413-3.088L483,34.774Z" transform="translate(0 204.723)" fill="#a67650"/>
      <path id="Path_1074" data-name="Path 1074" d="M1,71.781,55.82,31.4,412.5,29.433,483,69.657Z" transform="translate(0 169.839)" fill="#9d683e"/>
      <rect id="Rectangle_548" data-name="Rectangle 548" width="131.24" height="25.433" transform="translate(249.674 206.397)" fill="#fff"/>
      <rect id="Rectangle_552" data-name="Rectangle 552" width="17.42" height="14.445" transform="translate(120.724 204.544)" fill="#e2ebf5"/>
      <path id="Path_1075" data-name="Path 1075" d="M52.543,25.417,64.8,58.84s7.546-.731,8.7.105c1.258.941-.414,2.726-.414,2.937,0,.105,7.23,3.668,3.246,8.382s-12.366-3.351-15.4-5.558c-7.968-5.551-25.35-39.667-25.35-39.667Z" transform="translate(225.818 141.147)" fill="#f8b29a"/>
      <path id="Path_1076" data-name="Path 1076" d="M48.33,15.358c11.312,2.1,24.205,63.082,26.088,72.616a1.7,1.7,0,0,1-.836,1.89L56.825,89.8A1.84,1.84,0,0,1,54.2,88.96c-2.937-7.75-14.249-37.513-21.69-57.945C32.514,31.015,39.842,13.686,48.33,15.358Z" transform="translate(205.826 77.167)" fill="#004363"/>
      <path id="Path_1077" data-name="Path 1077" d="M32.34,48.64C35.059,27.786,44.759,5.975,60.055,3.987,81.12,1.261,100.814,7.444,107.1,46.945s-4.925,82.678-13.308,89.8c-8.488,7.125-27.557,23.678-27.557,23.678s-1.258-44.638.211-72.195a138.4,138.4,0,0,1,1.363-14.565s8.9,2.832,13.519-1.883c4.5-4.82,21.268-32.174,11.417-44.954a7.7,7.7,0,0,0-2.41-2.094c-3.984,10.371-28.92,9.324-38.455,18.753-7.26,7.094.264,19.19,7.125,26.721.075-1.341-1.107,19.672-1.152,20.432L55.446,135.6l-4.089-8.382s2.726,35.939-1.25,39.291c-3.879,3.457-14.558,1.732-16.975-1.785C16.653,140.83,31.293,56.495,32.34,48.64Z" transform="translate(159.012 0)" fill="#ffdea7"/>
      <path id="Path_1078" data-name="Path 1078" d="M34.218,70.65,23.282,26.14l17.6-2.2L38.059,70.883S39,76.645,36.7,78.113c-2.3,1.363-2.832-1.574-2.832-1.574s-8.909,3.464-14.249,2C14.267,76.961,34.218,70.65,34.218,70.65Z" transform="translate(115.63 133.97)" fill="#f8b29a"/>
      <path id="Path_1079" data-name="Path 1079" d="M19.025,84.918C19.763,65.329,29.607,7.8,49.1,9.794c10.062.941,4.089,31.225,2.2,41.181C49.2,62.181,39.352,95.085,39.352,95.085l1.679,20.959a.941.941,0,0,1-.843,1.047L20.6,119.08a.842.842,0,0,1-1.047-.836C19.342,113.635,18.709,92.464,19.025,84.918Z" transform="translate(117.161 41.241)" fill="#004363"/>
      <path id="Path_1081" data-name="Path 1081" d="M0,0H3.848V32.2H0Z" transform="translate(292.284 185.034) rotate(-16.437)" fill="#ffc046"/>
      <rect id="Rectangle_550" data-name="Rectangle 550" width="3.848" height="4.782" transform="translate(292.275 185.034) rotate(-16.437)" fill="#fdbb1e"/>
      <path id="Path_1080" data-name="Path 1080" d="M44.578,31.5v6.869l-3.69-5.776Z" transform="translate(260.519 183.333)" fill="#273240"/>
      <rect id="Rectangle_551" data-name="Rectangle 551" width="59.919" height="14.874" transform="translate(170.016 215.803)" fill="#ff6f00"/>
    </g>
  </g>
</svg>
